<svg width="80" height="22" viewBox="0 0 80 22" fill="none" xmlns="http://www.w3.org/2000/svg">
<path d="M28.1572 4.19836V3.86342H30.2027C30.2984 3.86342 30.3223 3.87538 30.3223 3.92323V4.35387L29.7123 4.60507L28.0615 10H26.8294L25.4896 5.98072L24.1259 10H22.9297L21.3268 4.90413C21.2431 4.65292 21.1354 4.56919 20.7526 4.42564C20.645 4.37779 20.621 4.29406 20.621 4.19836V3.86342H23.3962C23.4919 3.86342 23.5159 3.87538 23.5159 3.92323V4.35387L22.7981 4.58115L23.9824 8.55258L25.4178 3.86342H26.2791L27.8581 8.5765L28.8271 4.82039C28.8749 4.629 28.7314 4.56919 28.3007 4.41368C28.1811 4.36583 28.1572 4.29406 28.1572 4.19836ZM35.6086 10.1435C35.0105 10.1435 34.6037 9.84449 34.4722 9.22246C34.0654 9.80861 33.3358 10.1435 32.642 10.1435C31.673 10.1435 30.9792 9.52151 30.9792 8.48081C30.9792 7.15301 32.2592 6.72237 34.0296 6.71041H34.4004V5.69363C34.4004 4.59311 33.898 4.37779 33.2401 4.37779C32.9889 4.37779 32.7377 4.40172 32.5223 4.46153C32.4745 4.83235 32.3668 5.28692 32.2352 5.58597C32.1754 5.70559 32.1156 5.75344 32.008 5.75344H31.4936L31.3142 4.27013C31.9721 3.92323 32.8453 3.71987 33.7305 3.71987C35.4172 3.71987 35.9555 4.48545 35.9555 5.72951V8.69613C35.9555 9.04303 36.1229 9.16265 36.3622 9.16265C36.4938 9.16265 36.6014 9.13873 36.6971 9.06695L36.9483 9.49759C36.6852 9.9043 36.1469 10.1435 35.6086 10.1435ZM32.3907 8.28941C32.3907 8.80379 32.6898 9.19854 33.3358 9.19854C33.7066 9.19854 34.1013 9.04303 34.4004 8.83967V7.28459H34.0654C32.953 7.28459 32.3907 7.66738 32.3907 8.28941ZM40.6153 9.94019C40.6153 9.98804 40.5914 10 40.4957 10H37.7085V9.66506C37.7085 9.54544 37.7324 9.48563 37.8401 9.44974C38.2348 9.31816 38.3664 9.2105 38.3664 8.97126V2.18872C38.3664 1.98536 38.3186 1.93752 37.8401 1.82986C37.7444 1.80593 37.7085 1.77005 37.7085 1.67435V1.31548L39.9454 0.884847L39.9095 2.00929V9.28227L40.6153 9.50955V9.94019ZM42.9984 2.84664C42.472 2.84664 42.0653 2.43993 42.0653 1.93752C42.0653 1.47099 42.472 1.05232 42.9984 1.05232C43.5127 1.05232 43.8955 1.47099 43.8955 1.93752C43.8955 2.43993 43.5127 2.84664 42.9984 2.84664ZM44.4936 9.94019C44.4936 9.98804 44.4697 10 44.374 10H41.5868V9.66506C41.5868 9.54544 41.6108 9.48563 41.7184 9.44974C42.1132 9.31816 42.2448 9.22246 42.2448 8.98322V4.99982C42.2448 4.82039 42.1969 4.77254 41.7184 4.65292C41.6227 4.629 41.5868 4.59311 41.5868 4.49741V4.15051L43.8238 3.71987L43.7879 4.82039V9.28227L44.4936 9.50955V9.94019ZM48.3361 9.94019C48.3361 9.98804 48.3122 10 48.2165 10H45.4652V9.66506C45.4652 9.54544 45.4891 9.48563 45.5968 9.44974C45.6685 9.42582 45.7164 9.41385 45.7642 9.40189C46.0394 9.28227 46.1231 9.18657 46.1231 8.97126V5.01179C46.1231 4.82039 46.0633 4.76058 45.5968 4.65292C45.5011 4.629 45.4652 4.59311 45.4652 4.49741V4.15051L47.7021 3.71987L47.6782 4.84432C48.2165 4.24621 48.8744 3.82753 49.5084 3.75576C49.7596 3.73184 49.9869 3.7438 50.2142 3.79165C50.8242 3.88734 51.2429 4.30602 51.3984 4.94001C51.9846 4.24621 52.6784 3.79165 53.3841 3.73184C53.5516 3.71987 53.7191 3.73184 53.8746 3.7438C54.7358 3.8395 55.2622 4.42564 55.31 5.4185V9.28227L56.0158 9.50955V9.94019C56.0158 9.98804 55.9919 10 55.8962 10H53.1568V9.66506C53.1568 9.54544 53.1808 9.48563 53.2884 9.44974C53.3482 9.42582 53.408 9.41385 53.4559 9.40189C53.7071 9.29423 53.7669 9.18657 53.7669 8.97126V5.99268C53.7669 5.23907 53.42 4.85628 52.7382 4.85628C52.3554 4.85628 51.9008 5.01179 51.4702 5.31084C51.4821 5.43046 51.4941 5.53812 51.4941 5.6697V9.29423L52.152 9.50955V9.94019C52.152 9.98804 52.1281 10 52.0324 10H49.329V9.66506C49.329 9.54544 49.3529 9.48563 49.4725 9.44974C49.6041 9.41385 49.6878 9.37797 49.7476 9.34208C49.8792 9.27031 49.9271 9.18657 49.939 9.06695V6.38743C49.939 6.13623 49.9271 5.90895 49.9031 5.70559C49.8553 5.19122 49.5323 4.85628 48.9342 4.85628C48.5275 4.85628 48.1208 4.99982 47.6662 5.29888V9.29423L48.3361 9.50955V9.94019ZM61.5538 10.1435C60.9557 10.1435 60.549 9.84449 60.4174 9.22246C60.0107 9.80861 59.281 10.1435 58.5872 10.1435C57.6183 10.1435 56.9245 9.52151 56.9245 8.48081C56.9245 7.15301 58.2044 6.72237 59.9748 6.71041H60.3456V5.69363C60.3456 4.59311 59.8432 4.37779 59.1853 4.37779C58.9341 4.37779 58.6829 4.40172 58.4676 4.46153C58.4197 4.83235 58.3121 5.28692 58.1805 5.58597C58.1207 5.70559 58.0609 5.75344 57.9532 5.75344H57.4388L57.2594 4.27013C57.9173 3.92323 58.7905 3.71987 59.6757 3.71987C61.3624 3.71987 61.9007 4.48545 61.9007 5.72951V8.69613C61.9007 9.04303 62.0682 9.16265 62.3074 9.16265C62.439 9.16265 62.5467 9.13873 62.6424 9.06695L62.8936 9.49759C62.6304 9.9043 62.0921 10.1435 61.5538 10.1435ZM58.336 8.28941C58.336 8.80379 58.635 9.19854 59.281 9.19854C59.6518 9.19854 60.0466 9.04303 60.3456 8.83967V7.28459H60.0107C58.8982 7.28459 58.336 7.66738 58.336 8.28941ZM63.4281 4.58115V3.86342H64.2296L65.2224 2.10499H65.7248V3.86342H67.2799V4.73666C66.8852 4.68881 66.3708 4.65292 65.7248 4.629V8.06213C65.7248 8.82771 65.9282 9.16265 66.4187 9.16265C66.7057 9.16265 67.0287 9.05499 67.268 8.89948L67.567 9.37797C67.1364 9.85645 66.3947 10.1435 65.6531 10.1435C64.7918 10.1435 64.1698 9.62917 64.1698 8.38511V4.58115H63.4281ZM72.0222 3.92323C72.0222 3.87538 72.0461 3.86342 72.1418 3.86342H74.2711V8.8636C74.2711 9.06695 74.3189 9.1148 74.7974 9.23442C74.8811 9.25835 74.917 9.29423 74.917 9.38993V9.73683L72.704 10.1316L72.716 9.0191C72.0939 9.71291 71.3762 10.1435 70.5867 10.1435C69.546 10.1435 68.8881 9.49759 68.8881 8.31334V4.65292L68.1823 4.35387V3.92323C68.1823 3.87538 68.2062 3.86342 68.3019 3.86342H70.4432V7.87074C70.4432 8.66024 70.7781 9.00714 71.4121 9.00714C71.8547 9.00714 72.2734 8.85163 72.7279 8.56454V4.65292L72.0222 4.35387V3.92323ZM78.8614 9.94019C78.8614 9.98804 78.8375 10 78.7418 10H75.9546V9.66506C75.9546 9.54544 75.9786 9.48563 76.0862 9.44974C76.481 9.31816 76.6126 9.2105 76.6126 8.97126V2.18872C76.6126 1.98536 76.5647 1.93752 76.0862 1.82986C75.9905 1.80593 75.9546 1.77005 75.9546 1.67435V1.31548L78.1916 0.884847L78.1557 2.00929V9.28227L78.8614 9.50955V9.94019Z" fill="#1D444B"/>
<path d="M35.9306 21.4607H34.6387V13.4461H38.8015C40.6197 13.4461 41.7442 14.3073 41.7442 15.8026C41.7442 17.1304 40.8709 17.9438 39.3637 18.0276V18.1113C39.9857 18.2788 40.2728 18.6376 40.5599 19.14L41.8997 21.4607H40.4164L39.1364 19.2477C38.7776 18.6137 38.4067 18.3505 37.4019 18.3505H35.9306V21.4607ZM35.9306 14.6064V17.3577H38.7895C39.8661 17.3577 40.4044 16.9869 40.4044 15.982C40.4044 15.0011 39.8661 14.6064 38.7895 14.6064H35.9306ZM46.0371 21.5803C43.6446 21.5803 42.4245 20.5276 42.4245 18.841V18.7692H43.7164V18.9606C43.7164 19.9176 44.2786 20.3961 46.0371 20.3961C47.5682 20.3961 48.1065 20.0611 48.1065 19.3075C48.1065 18.6137 47.6998 18.3505 46.683 18.1591L44.7212 17.8362C43.3695 17.5969 42.4125 16.9749 42.4125 15.6591C42.4125 14.4987 43.3695 13.3264 45.8576 13.3264C48.2022 13.3264 49.2669 14.4987 49.2669 16.0658V16.1375H47.9869V15.982C47.9869 15.0011 47.4008 14.5107 45.738 14.5107C44.2786 14.5107 43.7045 14.8696 43.7045 15.5873C43.7045 16.2811 44.1112 16.5084 45.0562 16.7117L47.006 17.0467C48.6089 17.3338 49.3984 18.0634 49.3984 19.2357C49.3984 20.4559 48.4056 21.5803 46.0371 21.5803ZM54.9091 21.4607H53.0789L49.6577 13.4461H51.1888L53.9641 20.1568H54.0598L56.811 13.4461H58.3302L54.9091 21.4607ZM60.1703 21.4607H58.8783V13.4461H62.8019C64.5843 13.4461 65.8044 14.4628 65.8044 16.2452C65.8044 18.0156 64.5843 19.0443 62.8019 19.0443H60.1703V21.4607ZM62.6823 14.6064H60.1703V17.884H62.6823C63.8905 17.884 64.5125 17.4295 64.5125 16.2452C64.5125 15.0609 63.8905 14.6064 62.6823 14.6064Z" fill="#800020"/>
<path fill-rule="evenodd" clip-rule="evenodd" d="M1 5.65501V19.2764C1 19.9632 1.3824 21.3367 2.91199 21.3367C4.44158 21.3367 12.826 21.1841 16.827 21.1078C17.2873 21.1078 18.2079 20.7873 18.2079 19.5053V5.76948C18.2079 5.23531 17.953 4.0525 16.9333 4.0525H15.6586H14.3839H5.03643H3.76176H2.69955C2.13303 4.0525 1 4.46457 1 5.65501ZM2.38088 8.28771V5.76948V5.54055H3.76176V6.91413H5.03643V5.54055H14.3839V6.91413H15.6586V5.54055H16.9333V8.28771H2.38088ZM2.38088 19.7342V9.89022H16.9333V19.7342H2.38088Z" fill="#1D444B"/>
<path d="M14.3839 4.0525H15.6586V2.56445H14.3839V4.0525Z" fill="#FA7056"/>
<path d="M3.76176 4.0525H5.03643V2.56445H3.76176V4.0525Z" fill="#FA7056"/>
<path d="M9.71018 14.1254C10.0288 13.6294 10.8361 12.6374 11.516 12.6374C12.3657 12.6374 13.0031 13.0952 13.0031 14.1254C13.0031 15.1556 10.7724 17.7883 9.71018 18.4751C8.54174 17.4449 6.31109 15.1556 6.31109 14.1254C6.31109 12.8611 7.26708 12.6374 7.58575 12.6374C7.90441 12.6374 8.96663 12.8663 9.71018 14.1254Z" fill="#FA7056"/>
<path d="M18.2079 19.5053C18.2079 20.7873 17.2873 21.1078 16.827 21.1078C12.826 21.1841 4.44158 21.3367 2.91199 21.3367C1.3824 21.3367 1 19.9632 1 19.2764V5.65501C1 4.46457 2.13303 4.0525 2.69955 4.0525M18.2079 19.5053C18.2079 18.2233 18.2079 9.81391 18.2079 5.76948M18.2079 19.5053V5.76948M18.2079 5.76948C18.2079 5.23531 17.953 4.0525 16.9333 4.0525M16.9333 4.0525C15.9913 4.0525 8.32962 4.0525 3.76176 4.0525M16.9333 4.0525H15.6586M2.69955 4.0525C3.02887 4.0525 3.38478 4.0525 3.76176 4.0525M2.69955 4.0525H3.76176M3.76176 4.0525V2.56445H5.03643V4.0525M3.76176 4.0525H5.03643M5.03643 4.0525H14.3839M14.3839 4.0525V2.56445H15.6586V4.0525M14.3839 4.0525H15.6586M2.38088 5.76948V8.28771H16.9333V5.54055H15.6586V6.91413H14.3839V5.54055H5.03643V6.91413H3.76176V5.54055H2.38088V5.76948ZM2.38088 9.89022V19.7342H16.9333V9.89022H2.38088ZM9.71018 14.1254C10.0288 13.6294 10.8361 12.6374 11.516 12.6374C12.3657 12.6374 13.0031 13.0952 13.0031 14.1254C13.0031 15.1556 10.7724 17.7883 9.71018 18.4751C8.54174 17.4449 6.31109 15.1556 6.31109 14.1254C6.31109 12.8611 7.26708 12.6374 7.58575 12.6374C7.90441 12.6374 8.96663 12.8663 9.71018 14.1254Z" stroke="black" stroke-width="0.249211"/>
</svg>
